<svg id="Capa_1" enable-background="new 0 0 512 512" height="512" viewBox="0 0 512 512" width="512" xmlns="http://www.w3.org/2000/svg"><g><path d="m331 361h-30l-30 30h-15-15l-30-30h-30c-74.559 0-135 60.441-135 135v16h210 210v-16c0-74.559-60.441-135-135-135z" fill="#ff7b4a"/><path d="m466 496c0-74.559-60.441-135-135-135h-30l-30 30h-15v121h210z" fill="#ff435b"/><path d="m256 316h-45v75c0 24.853 20.147 45 45 45s45-20.147 45-45v-75z" fill="#a34f3e"/><path d="m301 391v-75h-45v120c24.853 0 45-20.147 45-45z" fill="#873f2e"/><path d="m256 0c-99.412 0-180 81.588-180 181v150h180 180v-150c0-99.412-80.588-181-180-181z" fill="#fabe2c"/><path d="m436 181c0-99.412-80.588-181-180-181v331h180z" fill="#ff9100"/><path d="m256 121h-120v120c0 66.273 53.725 120 120 120s120-53.727 120-120v-120z" fill="#c86e59"/><path d="m376 241v-120h-120v240c66.275 0 120-53.727 120-120z" fill="#a34f3e"/><g><path d="m196 181h30v30h-30z" fill="#5a5a5a"/></g><g><path d="m286 181h30v30h-30z" fill="#444"/></g><path d="m283.642 252.646c-4.717 11.147-15.572 18.354-27.642 18.354s-22.925-7.207-27.642-18.354l-27.627 11.719c9.434 22.25 31.128 36.635 55.269 36.635s45.835-14.385 55.269-36.636z" fill="#ffd5cc"/><path d="m311.269 264.364-27.627-11.719c-4.717 11.148-15.572 18.355-27.642 18.355v30c24.141 0 45.835-14.385 55.269-36.636z" fill="#fa9"/></g></svg>